# AST/ASF file generated using VICON BodyLanguage
# -----------------------------------------------
:version 1.10
:name VICON
:units
  mass 1.0
  length 0.45
  angle deg
:documentation
   .ast/.asf automatically generated from VICON data using
   VICON BodyBuilder and BodyLanguage model FoxedUp or BRILLIANT.MOD
:root
   order TX TY TZ RX RY RZ
   axis XYZ
   position 0 0 0  
   orientation 0 0 0 
:bonedata
  begin
     id 1 
     name lhipjoint
     direction 0.707368 -0.647095 0.284426 
     length 2.60678 
     axis 0 0 0  XYZ
  end
  begin
     id 2 
     name lfemur
     direction 0.34202 -0.939693 0  
     length 6.63812  
     axis 0 0 20  XYZ
    dof rx ry rz
    limits (-160.0 20.0)
           (-70.0 70.0)
           (-60.0 70.0)
  end
  begin
     id 3 
     name ltibia
     direction 0.34202 -0.939693 0   
     length 7.51178   
     axis 0 0 20   XYZ
    dof rx
    limits (-10.0 170.0)
  end
  begin
     id 4 
     name lfoot
     direction 0.121251 -0.333133 0.935051   
     length 1.83716   
     axis -90 7.62852e-016 20   XYZ
    dof rx rz
    limits (-45.0 90.0)
           (-70.0 20.0)
  end
  begin
     id 5 
     name ltoes
     direction 1.53611e-011 -4.21962e-011 1   
     length 0.916133   
     axis -90 7.62852e-016 20   XYZ
    dof rx
    limits (-90.0 20.0)
  end
  begin
     id 6 
     name rhipjoint
     direction -0.692419 -0.660507 0.290321   
     length 2.55385  
     axis 0 0 0  XYZ 
  end
  begin
     id 7 
     name rfemur
     direction -0.34202 -0.939693 0   
     length 7.29079   
     axis 0 0 -20   XYZ
    dof rx ry rz
    limits (-160.0 20.0)
           (-70.0 70.0)
           (-70.0 60.0)
  end
  begin
     id 8 
     name rtibia
     direction -0.34202 -0.939693 0   
     length 7.47143   
     axis 0 0 -20   XYZ
    dof rx
    limits (-10.0 170.0)
 end
 begin
     id 9 
     name rfoot
     direction -0.119907 -0.329441 0.936532   
     length 1.79439  
     axis -90 -7.62852e-016 -20   XYZ
    dof rx rz
    limits (-45.0 90.0)
           (-20.0 70.0)
  end
  begin
     id 10 
     name rtoes
     direction -1.53571e-011 -4.21961e-011 1   
     length 0.896039   
     axis -90 -7.62852e-016 -20   XYZ
    dof rx
    limits (-90.0 20.0)
  end
  begin
     id 11 
     name lowerback
     direction 0.0367721 0.992912 -0.113016   
     length 1.73542   
     axis 0 0 0   XYZ
    dof rx ry rz
    limits (-20.0 45.0)
           (-30.0 30.0)
           (-30.0 30.0)
  end
  begin
     id 12 
     name upperback
     direction -0.000314626 0.990678 0.136227   
     length 1.7514   
     axis 0 0 0   XYZ
    dof rx ry rz
    limits (-20.0 45.0)
           (-30.0 30.0)
           (-30.0 30.0)
  end
  begin
     id 13 
     name thorax
     direction -0.0226159 0.981151 0.191917   
     length 1.71471   
     axis 0 0 0   XYZ
    dof rx ry rz
    limits (-20.0 45.0)
           (-30.0 30.0)
           (-30.0 30.0)
  end
  begin
     id 14 
     name lowerneck
     direction 0.0219333 0.998071 0.0580739   
     length 1.65882   
     axis 0 0 0   XYZ
    dof rx ry rz
    limits (-20.0 45.0)
           (-30.0 30.0)
           (-30.0 30.0)
  end
  begin
     id 15 
     name upperneck
     direction 0.0384529 0.980058 -0.194957   
     length 1.6612   
     axis 0 0 0   XYZ
    dof rx ry rz
    limits (-20.0 45.0)
           (-30.0 30.0)
           (-30.0 30.0)
  end
  begin
     id 16
     name head
     direction 0.00592123 0.997421 -0.0715234  
     length 1.68077  
     axis 0 0 0   XYZ
    dof rx ry rz
    limits (-20.0 45.0)
           (-30.0 30.0)
           (-30.0 30.0)
  end
  begin
     id 17 
     name lclavicle
     direction 0.904803 0.417826 0.0821728  
     length 3.42227  
     axis 0 0 0   XYZ
    dof ry rz
    limits (-20.0 10.0)
           (0.0 20.0)
  end
  begin
     id 18 
     name lhumerus
     direction 1 -4.48965e-011 -2.68786e-027   
     length 5.11878   
     axis -180 -30 -90   XYZ
    dof rx ry rz
    limits (-60.0 90.0)
           (-90.0 90.0)
           (-90.0 90.0)
  end
  begin
     id 19
     name lradius
     direction 1 -4.48965e-011 2.61168e-028   
     length 3.59971   
     axis -180 -30 -90   XYZ
    dof rx
    limits (-10.0 170.0)
  end
  begin
     id 20
     name lwrist
     direction 1 -4.48965e-011 1.58672e-027   
     length 1.79985   
     axis -1.65735e-015 90 90   XYZ
    dof ry
    limits (-180.0 0.0)
 end
  begin
     id 21 
     name lhand
     direction 1 -4.48942e-011 3.17344e-027   
     length 0.62877   
     axis -2.02492e-015 90 90   XYZ
    dof rx rz
    limits (-90.0 90.0)
           (-45.0 45.0)
  end
  begin
     id 22 
     name lfingers
     direction 1 -4.49011e-011 6.34687e-027   
     length 0.506931   
     axis -4.04985e-015 90 90   XYZ
    dof rx
    limits (0.0 90.0)
  end
  begin
     id 23
     name lthumb
     direction 0.707107 -6.34982e-011 0.707107   
     length 0.727854   
     axis -90 45 2.85299e-015   XYZ
    dof rx rz
    limits (-45.0 45.0)
           (-45.0 45.0)
  end
  begin
     id 24 
     name rclavicle
     direction -0.945647 0.32488 0.0143075   
     length 3.52737  
     axis 0 0 0   XYZ 
    dof ry rz
    limits (-10.0 20.0)
           (-20.0 0.0)
  end
  begin
     id 25 
     name rhumerus
     direction -1 -4.48962e-011 1.92182e-027  
     length 5.4902   
     axis -180 30 90   XYZ
    dof rx ry rz
    limits (-90.0 60.0)
           (-90.0 90.0)
           (-90.0 90.0)
  end
  begin
     id 26 
     name rradius
     direction -1 -4.48967e-011 -5.97193e-028   
     length 3.20659   
     axis -180 30 90   XYZ
    dof rx
    limits (-10.0 170.0)
  end
  begin
     id 27 
     name rwrist
     direction -1 -4.48964e-011 1.58672e-027   
     length 1.6033   
     axis -1.65735e-015 -90 -90   XYZ
    dof ry
    limits (-180.0 0.0)
  end
  begin
     id 28
     name rhand
     direction -1 -4.49006e-011 3.17344e-027   
     length 0.691885   
     axis -2.02492e-015 -90 -90   XYZ
    dof rx rz
    limits (-90.0 90.0)
           (-45.0 45.0)
  end
  begin
     id 29
     name rfingers
     direction -1 -4.48908e-011 6.34687e-027   
     length 0.557815   
     axis -4.04985e-015 -90 -90   XYZ
    dof rx
    limits (0.0 90.0)
  end
  begin
     id 30
     name rthumb
     direction -0.707107 -6.34999e-011 0.707107   
     length 0.800915   
     axis -90 -45 -2.85299e-015   XYZ
    dof rx rz
    limits (-45.0 45.0)
           (-45.0 45.0)
  end
:hierarchy
  begin
    root lhipjoint rhipjoint lowerback
    lhipjoint lfemur
    lfemur ltibia
    ltibia lfoot
    lfoot ltoes
    rhipjoint rfemur
    rfemur rtibia
    rtibia rfoot
    rfoot rtoes
    lowerback upperback
    upperback thorax
    thorax lowerneck lclavicle rclavicle
    lowerneck upperneck
    upperneck head
    lclavicle lhumerus
    lhumerus lradius
    lradius lwrist
    lwrist lhand lthumb
    lhand lfingers
    rclavicle rhumerus
    rhumerus rradius
    rradius rwrist
    rwrist rhand rthumb
    rhand rfingers
  end

#!OML:ASF I:\Actors\actors\Patient Classification 1\Patient 1\Session 1\Subject1.ASF
:FULLY-SPECIFIED
:DEGREES
1
root 0.228488 17.4695 8.37076 9.43358 -3.50561 -8.44547
lowerback -1.33144 1.8137 6.15341
upperback -10.1562 2.73873 0.411796
thorax -9.79469 0.840704 -3.17864
lowerneck -3.27196 -7.06359 0.157212
upperneck 22.6872 -12.4417 11.1593
head 8.30206 -4.97504 2.64502
rclavicle 4.57205e-015 -4.45278e-014
rhumerus -47.6855 -24.0737 -71.9139
rradius 27.1618
rwrist 39.9293
rhand 9.83313 -34.6051
rfingers 7.12502
rthumb 34.9681 -61.1686
lclavicle 4.57205e-015 -4.45278e-014
lhumerus -46.0027 20.278 70.1023
lradius 26.5642
lwrist -6.17928
lhand 17.8828 -4.45983
lfingers 7.12502
lthumb 42.5579 19.9405
rfemur -3.63089 28.176 22.6053
rtibia 2.04778
rfoot -12.2212 -26.1259
rtoes -1.69648
lfemur 6.13964 -44.4244 -13.258
ltibia -5.11028
lfoot -27.5457 57.0071
ltoes 20.0455
2
root 0.229804 17.4689 8.37138 9.40689 -3.49222 -8.47892
lowerback -1.33997 1.60742 6.1228
upperback -10.0949 2.47733 0.697904
thorax -9.75941 0.731531 -2.83831
lowerneck -3.36595 -6.99234 -0.521575
upperneck 22.7636 -12.2532 11.0144
head 8.35802 -4.94847 2.72042
rclavicle 1.36167e-014 -3.18055e-015
rhumerus -47.2811 -23.3915 -72.1026
rradius 27.1437
rwrist 39.9444
rhand 10.0308 -34.6552
rfingers 7.12502
rthumb 35.1556 -61.1748
lclavicle 1.36167e-014 -3.18055e-015
lhumerus -46.2858 20.5608 70.5544
lradius 26.0053
lwrist -8.91008
lhand 12.9333 -7.18788
lfingers 7.12502
lthumb 37.9029 18.6377
rfemur -3.56661 28.1664 22.6643
rtibia 2.00265
rfoot -12.2711 -26.1162
rtoes -1.68321
lfemur 6.21905 -44.4564 -13.2804
ltibia -5.1302
lfoot -27.5063 57.023
ltoes 19.9815
3
root 0.229905 17.4693 8.36931 9.41092 -3.49462 -8.54085
lowerback -1.32511 1.40392 6.08739
upperback -10.0556 2.22363 1.00159
thorax -9.76041 0.625743 -2.47823
lowerneck -3.4388 -6.91785 -1.20395
upperneck 22.8387 -12.0537 10.8606
head 8.40836 -4.91927 2.79614
rclavicle 6.95746e-016 3.02153e-014
rhumerus -46.8598 -22.7013 -72.2762
rradius 27.1004
rwrist 39.9571
rhand 10.0905 -34.6662
rfingers 7.12502
rthumb 35.2121 -61.1724
lclavicle 6.95746e-016 3.02153e-014
lhumerus -46.5715 20.8257 71.0222
lradius 25.4712
lwrist -11.6686
lhand 7.85739 -9.53772
lfingers 7.12502
lthumb 33.0914 17.4432
rfemur -3.59921 28.186 22.7265
rtibia 2.03822
rfoot -12.3077 -26.1099
rtoes -1.3347
lfemur 6.20257 -44.4242 -13.1856
ltibia -5.14623
lfoot -27.5811 56.9906
ltoes 20.1278
4
root 0.230565 17.4696 8.36752 9.42562 -3.50087 -8.53261
lowerback -1.33891 1.19422 5.98529
upperback -10.0223 1.95545 1.2903
thorax -9.74954 0.517971 -2.09543
lowerneck -3.49282 -6.82124 -1.8581
upperneck 22.9255 -11.816 10.6712
head 8.45216 -4.87347 2.86058
rclavicle 2.98177e-016 1.47101e-014
rhumerus -46.4525 -21.9234 -72.4869
rradius 27.1247
rwrist 39.8555
rhand 10.0835 -34.691
rfingers 7.12502
rthumb 35.2055 -61.1989
lclavicle 2.98177e-016 1.47101e-014
lhumerus -46.8636 21.1282 71.4818
lradius 24.9246
lwrist -14.6394
lhand 2.42192 -11.4232
lfingers 7.12502
lthumb 27.908 16.5231
rfemur -3.64775 28.161 22.6951
rtibia 2.06618
rfoot -12.3132 -26.0817
rtoes -1.34806
lfemur 6.13393 -44.3421 -13.1455
ltibia -5.13228
lfoot -27.4835 56.9377
ltoes 20.1621
5
root 0.228157 17.4728 8.36904 9.51282 -3.59885 -8.14592
lowerback -1.51646 0.984377 5.40622
upperback -9.99292 1.64828 1.49553
thorax -9.64546 0.429293 -1.5316
lowerneck -3.59291 -6.72472 -2.5084
upperneck 23.0583 -11.5812 10.4732
head 8.51959 -4.82653 2.92022
rclavicle 8.94531e-016 9.54166e-015
rhumerus -45.8797 -21.0277 -72.7833
rradius 26.8896
rwrist 39.6238
rhand 9.80885 -34.6631
rfingers 7.12502
rthumb 34.945 -61.232
lclavicle 8.94531e-016 9.54166e-015
lhumerus -47.0819 20.8689 72.4533
lradius 24.6315
lwrist -17.0118
lhand -3.60542 -11.9916
lfingers 7.12502
lthumb 22.1328 16.7616
rfemur -3.7884 28.2689 22.1519
rtibia 2.01772
rfoot -12.3351 -26.1537
rtoes -0.685287
lfemur 5.98126 -44.5019 -13.5269
ltibia -5.03993
lfoot -27.8575 57.0487
ltoes 20.4163
6
root 0.221943 17.48 8.39348 9.84745 -3.48955 -7.85657
lowerback -2.32932 0.519208 4.78178
upperback -9.94856 0.977018 2.03717
thorax -9.16775 0.188127 -0.558966
lowerneck -3.76249 -6.40358 -3.64732
upperneck 23.3152 -10.9786 10.2526
head 8.63631 -4.64402 3.08928
rclavicle -2.78299e-015 1.27222e-014
rhumerus -44.8106 -19.266 -73.2143
rradius 26.2088
rwrist 39.2755
rhand 9.22414 -34.4503
rfingers 7.12502
rthumb 34.3901 -61.1466
lclavicle -2.78299e-015 1.27222e-014
lhumerus -47.5905 20.239 74.4019
lradius 24.2902
lwrist -20.9679
lhand -14.29 -11.6722
lfingers 7.12502
lthumb 11.8495 17.9725
rfemur -3.95748 28.2939 21.7065
rtibia 1.75041
rfoot -12.2782 -26.3503
rtoes 0.6906
lfemur 5.58681 -44.7755 -13.6248
ltibia -4.98187
lfoot -28.1888 57.1415
ltoes 20.5223
7
root 0.218324 17.4832 8.40159 9.98475 -3.49301 -7.61795
lowerback -2.66232 0.49279 4.48566
upperback -9.93 0.907093 2.00218
thorax -8.95258 0.179946 -0.426121
lowerneck -3.80673 -6.49669 -3.85053
upperneck 23.3791 -11.0614 10.1104
head 8.67577 -4.70984 3.06479
rclavicle -9.44227e-016 -1.49089e-014
rhumerus -44.5328 -19.1394 -73.329
rradius 25.9097
rwrist 39.1256
rhand 8.91522 -34.2756
rfingers 7.12502
rthumb 34.0967 -61.0379
lclavicle -9.44227e-016 -1.49089e-014
lhumerus -47.5249 19.7684 74.8333
lradius 24.5334
lwrist -20.1711
lhand -14.4482 -11.3743
lfingers 7.12502
lthumb 11.6969 18.2791
rfemur -4.06028 28.3782 21.3638
rtibia 1.65121
rfoot -12.2774 -26.4664
rtoes 1.55065
lfemur 5.41948 -44.9635 -13.8093
ltibia -4.92779
lfoot -28.5456 57.2206
ltoes 20.7633
